<!-- Generator: Adobe Illustrator 21.1.0, SVG Export Plug-In  -->
<svg version="1.1" xmlns="http://www.w3.org/2000/svg" xmlns:xlink="http://www.w3.org/1999/xlink" xmlns:a="http://ns.adobe.com/AdobeSVGViewerExtensions/3.0/" x="0px" y="0px" width="238.8px" height="118.6px" viewBox="0 0 238.8 118.6" style="enable-background:new 0 0 238.8 118.6;" xml:space="preserve">
<style type="text/css">
	.st0{fill:#505050;}
	.st1{fill:#4B8287;}
</style>
<defs>
</defs>
<g>
	<g>
		<path class="st0" d="M191.5,0.5c4.4,0,8.1,1.6,11.2,4.7c3.1,3.2,4.7,7,4.7,11.5c0,4.5-1.5,8.3-4.6,11.4c-3.1,3.1-6.8,4.7-11.3,4.7
			c-4.6,0-8.5-1.6-11.5-4.8c-3.1-3.2-4.6-7-4.6-11.4c0-2.9,0.7-5.7,2.1-8.1c1.4-2.5,3.4-4.4,5.9-5.9C185.9,1.2,188.6,0.5,191.5,0.5z
			 M191.4,6.2c-2.9,0-5.2,1-7.2,3c-1.9,2-2.9,4.5-2.9,7.6c0,3.4,1.2,6.1,3.7,8.1c1.9,1.5,4.1,2.3,6.5,2.3c2.8,0,5.1-1,7.1-3
			c2-2,2.9-4.5,2.9-7.4c0-2.9-1-5.4-3-7.4C196.7,7.2,194.3,6.2,191.4,6.2z"/>
	</g>
	<g>
		<path class="st0" d="M95.4,1.2h19l-11.2,25.6h10.4v5.7H94.5l11.1-25.5H95.4V1.2z"/>
	</g>
	<g>
		<path class="st0" d="M128.4,1.2h6.1l12.1,31.4h-6.2l-2.5-6.5h-12.8l-2.6,6.5h-6.2L128.4,1.2z M131.5,9.5l-4.2,10.8h8.4L131.5,9.5z
			"/>
	</g>
	<g>
		<path class="st0" d="M151.2,1.2h6V12l8.5-10.8h7.2l-11,14l12,17.4h-7.1l-9.7-13.9v13.9h-6V1.2z"/>
	</g>
	<g>
		<path class="st0" d="M212.8,0.8h5.8l13.5,20.8V0.8h6v31.6h-5.8l-13.5-20.7v20.7h-6V0.8z"/>
	</g>
	<g>
		<path class="st1" d="M94.5,38.6h7.4l17.4,26.8V38.6h7.8v40.7h-7.5l-17.4-26.7v26.7h-7.8V38.6z"/>
	</g>
	<g>
		<path class="st1" d="M134,39h7.7v33h11.2v7.3H134V39z"/>
	</g>
	<g>
		<path class="st1" d="M158.2,39h7.6v40.3h-7.6V39z"/>
	</g>
	<g>
		<path class="st1" d="M174.5,39h7.4l17.3,26.6V39h7.7v40.3h-7.4l-17.2-26.5v26.5h-7.7V39z"/>
	</g>
	<g>
		<path class="st1" d="M216.1,39h22v7.5h-14.4v7.3h14.4v7.4h-14.4v10.6h14.4v7.5h-22V39z"/>
	</g>
	<g>
		<polygon class="st1" points="116.9,97.7 124.2,97.7 124.2,108.1 123.2,108.1 123.2,98.7 117.9,98.7 117.9,108.1 116.9,108.1 		"/>
		<path class="st1" d="M132.6,98.8c-0.4-0.5-0.9-0.8-1.4-0.9c-0.4-0.1-1.2-0.2-2.4-0.2h-2.1v10.3h1v-4.8h0.7c1.3,0,2.2-0.1,2.6-0.2
			c0.6-0.2,1.1-0.5,1.5-0.9c0.4-0.4,0.5-1,0.5-1.7C133.2,99.8,133,99.3,132.6,98.8z M131.8,101.5c-0.2,0.3-0.4,0.5-0.8,0.6
			c-0.3,0.1-0.8,0.2-1.6,0.2l-1.8,0v-3.5h1.8c0.7,0,1.2,0.1,1.5,0.2c0.3,0.1,0.6,0.3,0.7,0.6c0.2,0.3,0.3,0.6,0.3,1
			C132.1,100.9,132,101.2,131.8,101.5z"/>
		<path class="st1" d="M139.5,97.7h-0.3l-4.9,10.3h1.2l1.6-3.4h4.5l1.6,3.4h1.1L139.5,97.7z M137.6,103.7l1.8-3.7l1.8,3.7H137.6z"/>
		<path class="st1" d="M151.9,104c-0.2-0.3-0.4-0.6-0.7-0.9c-0.3-0.2-0.7-0.5-1.2-0.6c0.4-0.2,0.8-0.5,1-0.9
			c0.2-0.4,0.3-0.8,0.3-1.3c0-0.5-0.1-0.9-0.4-1.3c-0.3-0.4-0.6-0.7-1-0.9c-0.4-0.2-1.1-0.3-1.9-0.3h-2v10.3h2.8
			c1,0,1.8-0.3,2.4-0.9c0.6-0.6,0.9-1.3,0.9-2.1C152.1,104.7,152.1,104.3,151.9,104z M146.9,98.8h1.2c0.7,0,1.3,0.1,1.6,0.4
			c0.3,0.3,0.5,0.6,0.5,1.1c0,0.4-0.1,0.7-0.3,1c-0.2,0.3-0.5,0.5-0.8,0.6c-0.3,0.1-0.9,0.2-1.6,0.2h-0.6V98.8z M150.7,106.2
			c-0.2,0.3-0.5,0.5-0.8,0.7c-0.4,0.1-0.9,0.2-1.7,0.2h-1.3v-4h0.6c0.9,0,1.5,0,1.8,0.1c0.5,0.1,0.9,0.4,1.2,0.7
			c0.3,0.3,0.5,0.7,0.5,1.2C151.1,105.5,151,105.9,150.7,106.2z"/>
		<path class="st1" d="M171.4,98.8c0.7-0.8,1.6-1.3,2.7-1.3c0.8,0,1.6,0.2,2.1,0.7c0.6,0.5,0.8,1.1,0.8,1.9c0,1.1-0.5,1.9-1.6,2.4
			c1.4,0.4,2,1.3,2,2.7c0,0.9-0.3,1.7-0.9,2.3c-0.6,0.6-1.4,0.9-2.5,0.9c-0.7,0-1.4-0.2-1.9-0.5c-0.5-0.3-1.1-0.8-1.5-1.6l0.8-0.5
			c0.5,0.7,0.9,1.2,1.3,1.4c0.4,0.2,0.9,0.3,1.3,0.3c0.7,0,1.2-0.2,1.7-0.6c0.5-0.4,0.7-0.9,0.7-1.7c0-0.4-0.1-0.7-0.2-1
			c-0.2-0.3-0.4-0.5-0.7-0.7c-0.3-0.2-0.6-0.3-0.8-0.3c-0.3,0-0.7-0.1-1.3-0.1h-0.2v-0.9h0.3c1.5,0,2.3-0.6,2.3-1.9
			c0-0.6-0.2-1-0.5-1.4c-0.3-0.3-0.8-0.5-1.3-0.5c-0.7,0-1.3,0.3-2,0.9L171.4,98.8z"/>
		<polygon class="st1" points="179.5,97.7 180.6,97.7 180.6,102.1 185.8,102.1 185.8,97.7 186.9,97.7 186.9,108.1 185.8,108.1 
			185.8,103.1 180.6,103.1 180.6,108.1 179.5,108.1 		"/>
		<path class="st1" d="M193.6,97.7h-0.3l-4.9,10.3h1.2l1.6-3.4h4.5l1.6,3.4h1.1L193.6,97.7z M191.7,103.7l1.8-3.7l1.8,3.7H191.7z"/>
		<polygon class="st1" points="199,98.8 199,97.7 204.7,97.7 204.7,98.8 202.4,98.8 202.4,108.1 201.3,108.1 201.3,98.8 		"/>
		<polygon class="st1" points="214.3,108.1 213.2,108.1 213.2,100.2 206.4,108.1 206.2,108.1 206.2,97.7 207.2,97.7 207.2,105.8 
			214.1,97.7 214.3,97.7 		"/>
		<path class="st1" d="M217.7,106.5c0.2,0,0.4,0.1,0.6,0.3c0.2,0.2,0.3,0.4,0.3,0.6c0,0.2-0.1,0.4-0.3,0.6c-0.2,0.2-0.4,0.3-0.6,0.3
			s-0.4-0.1-0.6-0.3c-0.2-0.2-0.3-0.4-0.3-0.6c0-0.2,0.1-0.5,0.3-0.6C217.3,106.6,217.5,106.5,217.7,106.5z"/>
		<rect x="217.2" y="97.5" class="st1" width="1" height="8"/>
		<path class="st1" d="M163,99.1c-1.1-1-2.4-1.6-3.9-1.6c-1,0-1.9,0.2-2.7,0.7c-0.8,0.5-1.5,1.1-2,2c-0.5,0.8-0.7,1.8-0.7,2.8
			c0,1.5,0.5,2.8,1.6,3.8c1.1,1.1,2.4,1.6,3.9,1.6c1.5,0,2.8-0.5,3.9-1.6c1.1-1.1,1.6-2.3,1.6-3.9C164.6,101.4,164.1,100.1,163,99.1
			z M163,105.2c-0.4,0.7-0.9,1.2-1.6,1.6c-0.7,0.4-1.4,0.6-2.2,0.6c-1.2,0-2.2-0.4-3.1-1.3c-0.9-0.8-1.3-1.9-1.3-3.1
			c0-0.8,0.2-1.6,0.6-2.3c0.4-0.7,0.9-1.2,1.6-1.6c0.7-0.4,1.4-0.6,2.2-0.6c0.8,0,1.5,0.2,2.2,0.6c0.7,0.4,1.2,0.9,1.6,1.6
			c0.4,0.7,0.6,1.4,0.6,2.2C163.6,103.7,163.4,104.5,163,105.2z"/>
	</g>
	<g>
		<path class="st0" d="M238.8,118.4H88.7l-6.2-30.5h156.3V118.4z M90,117h147.4V89.4h-153L90,117z"/>
	</g>
	<path class="st1" d="M106.4,118.4l-6.2-8.8l-3.1-4.5c0-0.1-0.1-0.1-0.1-0.2l-7.1-10.1L74,72.2C87.6,57.7,89.7,35.2,78,18.3
		C64.4-1.1,37.7-5.8,18.3,7.7C-1.1,21.2-5.8,48,7.7,67.3c11.9,17,33.9,22.7,52.2,14.8l22.8,32.7c1.7,2.5,4.5,3.8,7.3,3.7l0,0
		L106.4,118.4z M58.2,64.8c-12.1,8.5-28.9,5.5-37.3-6.7c-8.5-12.1-5.5-28.9,6.7-37.3c12.1-8.5,28.9-5.5,37.3,6.7
		C73.3,39.6,70.3,56.4,58.2,64.8z"/>
</g>
</svg>
